<svg viewBox="0 0 68 49" fill="none" xmlns="http://www.w3.org/2000/svg">
    <path d="M13 11.3238C12.1667 9.15712 12.1 4.22379 18.5 1.82379C19.3333 4.15712 19.4 9.32379 13 11.3238ZM13 11.3238C11.9318 13.7273 10.9563 16.8797 10.5039 20.3238M27.5 45.8238C24.5606 44.9919 22.0807 43.9005 20 42.6135M10.5039 20.3238C8.50703 14.3238 3.66927 13.8238 1.5 14.3238C1.66927 16.9905 3.70702 21.9238 10.5039 20.3238ZM10.5039 20.3238C9.91175 24.8323 10.2161 29.8408 12.3826 34.3238M12.3826 34.3238C10.9217 31.9905 6.6 28.2238 1 31.8238C1.42336 32.7314 2.25705 33.8559 3.5 34.6794M12.3826 34.3238C13.899 37.4617 16.3278 40.3422 20 42.6135M12.3826 34.3238C10.084 35.5981 8.12283 35.9494 6.5 35.7679M20 42.6135C17 42.1836 11.5 41.8238 9.5 47.3238C13 48.3238 17.5 48.3238 20 42.6135Z" stroke="#00AE42" strokeWidth="1.5" strokeLinecap="round" strokeLinejoin="round" />
    <path d="M54.7736 11.3232C55.6226 9.15665 55.6906 4.22363 49.1698 1.82379C48.3208 4.15697 48.2528 9.3233 54.7736 11.3232ZM54.7736 11.3232C55.862 13.7265 56.8559 16.8787 57.3168 20.3226M40 45.8209C42.9948 44.9891 45.5215 43.8977 47.6415 42.6109M57.3168 20.3226C59.3513 14.323 64.2804 13.823 66.4906 14.323C66.4064 15.6244 65.8688 17.4656 64.5353 18.8238M57.3168 20.3226C57.9201 24.8308 57.61 29.839 55.4027 34.3217M57.3168 20.3226C59.1272 20.7409 60.6063 20.7126 61.8066 20.3951M55.4027 34.3217C56.8911 31.9885 61.2943 28.2221 67 31.8218C62.2 37.4203 57.2684 35.8211 55.4027 34.3217ZM55.4027 34.3217C53.8576 37.4594 51.383 40.3397 47.6415 42.6109M47.6415 42.6109C50.6981 42.181 56.3019 41.8212 58.3396 47.3208C54.7736 48.3208 50.1887 48.3208 47.6415 42.6109Z" stroke="#00AE42" strokeWidth="1.5" strokeLinecap="round" strokeLinejoin="round" />
    <path d="M38 12.3238V3.32379C38 1.82379 35.5 0.323792 34 1.32379L26 8.82379C23.5 11.8238 26.4 16.7238 32 12.3238V29.8238H29.5C26 29.8238 26 36.8238 29.5 36.8238H40.5C44 36.8238 44 29.8238 40.5 29.8238H38V15.3238" stroke="#00AE42" strokeWidth="1.5" strokeLinecap="round" strokeLinejoin="round" />
</svg>