<svg viewBox="0 0 69 51" fill="none" xmlns="http://www.w3.org/2000/svg">
    <path d="M30.5 36.8904L33 44.8905M30.5 36.8904C28.8216 34.7925 25.7347 34.103 23.8988 36.8904C23.7345 37.1399 23.5802 37.4173 23.4379 37.7239C23.0931 38.4666 23.0839 39.3104 23.2445 40.1133L25 48.8905H34M30.5 36.8904L34 36.4159M33 44.8905L34 48.8905M33 44.8905L51.5 44.6102M61.4999 44.4586L63.8437 44.4231C65.1896 44.4027 66.5067 43.7263 66.9251 42.4469C68.5509 37.4755 64.8614 32.4485 59.9999 32.8905L34 36.4159M61.4999 44.4586C62.6999 47.7132 60.6666 49.1026 59.4999 49.3905L34 48.8905M61.4999 44.4586L54.7791 44.5605M7.49996 13.8905C6.49997 11.3904 9 8.39041 12.5 8.39041M7.49996 13.8905L1.10233 4.50718C0.489677 3.60861 0.701678 2.35815 1.67702 1.87702C7.78823 -1.13758 12.0409 4.25868 12.5 8.39041M7.49996 13.8905L22 34.2273M12.5 8.39041C20 8.39041 31 27.9074 34 36.4159" stroke="#00AE42" strokeWidth="1.5" strokeLinecap="round" strokeLinejoin="round"/>
</svg>