<svg viewBox="0 0 57 49" fill="none" xmlns="http://www.w3.org/2000/svg">
    <path d="M42 21.5V18C42 16.3431 43.3431 15 45 15H49M42 21.5H56M42 21.5V28M56 21.5V18C56 16.3431 54.6569 15 53 15H49M56 21.5V23M56 28H42M56 28V34.5M56 28V26.5M42 28V29.5M42 34.5H56M42 34.5V41.25M42 34.5V33.5M56 34.5V41.25M56 41.25V45C56 46.6569 54.6569 48 53 48H49M56 41.25H42M42 41.25V45C42 46.6569 43.3431 48 45 48H49M49 48V15M28.25 23.5H33.5C35.1569 23.5 36.5 24.8431 36.5 26.5V29.5M28.25 23.5C26.1625 23.5 24.6693 23.5 23.0002 23.5C21.3434 23.5 20 24.8431 20 26.5V29.5M28.25 23.5V19M30.5 39.5H33.5C35.1569 39.5 36.5 38.1569 36.5 36.5V33.5M30.5 39.5V34.5M30.5 39.5H27.5M1 21.5V18C1 16.3431 2.34315 15 4 15H8M1 21.5H15M1 21.5V28M15 21.5V18C15 16.3431 13.6569 15 12 15H8M15 21.5V28M15 28H1M15 28V29.5M1 28V34.5M1 34.5H15M1 34.5V41.25M15 34.5V41.25M15 34.5V33.5M15 41.25V45C15 46.6569 13.6569 48 12 48H8M15 41.25H1M1 41.25V45C1 46.6569 2.34315 48 4 48H8M8 48V15M15 29.5H20M15 29.5V33.5M20 29.5V33.5M20 33.5V36.5C20 38.1569 21.3431 39.5 23 39.5H24M20 33.5H15M36.5 29.5H42M36.5 29.5V33.5M42 29.5V33.5M36.5 33.5H42M30.5 30.5V34.5M30.5 30.5C31.8807 30.5 33 29.3807 33 28C33 26.6193 31.8807 25.5 30.5 25.5C29.1193 25.5 28 26.6193 28 28C28 29.3807 29.1193 30.5 30.5 30.5ZM30.5 34.5H27.5M27.5 34.5C27.5 35.8807 26.3807 37 25 37C23.6193 37 22.5 35.8807 22.5 34.5C22.5 33.1193 23.6193 32 25 32C26.3807 32 27.5 33.1193 27.5 34.5Z" stroke="#00AE42" strokeWidth="1.5" strokeLinecap="round" strokeLinejoin="round"/>
    <path d="M23.5 10.9394C26.5 7.93945 31.5 7.93943 34.5 10.9394M20.5 8.93941C24.5 3.93938 34 4 37.5 8.93941M18 5.93937C23.5 -0.560623 34 -0.560624 40 5.43938M26.5 13.9394C28 12.5 30 12.5 31.5 13.9394" stroke="#00AE42" strokeWidth="1.5" strokeLinecap="round" strokeLinejoin="round"/>
</svg>