<svg fill="none" viewBox="0 0 53 53" xmlns="http://www.w3.org/2000/svg">
    <path d="M19 42V40C19 39.4477 19.4477 39 20 39H33C33.5523 39 34 39.4477 34 40V42C34 42.5523 33.5523 43 33 43H20C19.4477 43 19 42.5523 19 42Z" stroke="#00AE42" strokeWidth="1.5"/>
    <path d="M8 14V9C8 6.23858 10.2386 4 13 4H15.5M8 14H45M8 14V18M45 14V9C45 6.23858 42.7614 4 40 4H37M45 14L45 17.5M45 36V42C45 44.7614 42.7614 47 40 47V47M45 36H8M45 36L45 17.5M8 36V42C8 44.7614 10.2386 47 13 47V47M8 36V18M35 20.5L36.5 19M36 23.5L39.5 19.5M15.5 4V5C15.5 6.10457 16.3954 7 17.5 7H35C36.1046 7 37 6.10457 37 5V4M15.5 4V3C15.5 1.89543 16.3954 1 17.5 1H21M37 4V3C37 1.89543 36.1046 1 35 1H24.5M13 47V49C13 50.6569 14.3431 52 16 52H16.5C18.1569 52 19.5 50.6569 19.5 49V47M13 47H19.5M19.5 47H33.5M33.5 47V49C33.5 50.6569 34.8431 52 36.5 52H37C38.6569 52 40 50.6569 40 49V47M33.5 47H40M8 18C5.6 18.8 5 20.3333 5 21M48 21H50C51.1046 21 52 21.8954 52 23V28C52 29.1046 51.1046 30 50 30V30C48.8954 30 48 29.1046 48 28V21ZM48 21C47.8333 20 47 17.9 45 17.5M5 21V28C5 29.1046 4.10457 30 3 30V30C1.89543 30 1 29.1046 1 28V23C1 21.8954 1.89543 21 3 21H5Z" stroke="#00AE42" strokeWidth="1.5" strokeLinecap="round" strokeLinejoin="round"/>
    <circle cx="14" cy="41" r="2.25" stroke="#00AE42" strokeWidth="1.5"/>
    <circle cx="39" cy="41" r="2.25" stroke="#00AE42" strokeWidth="1.5"/>
</svg>