<?xml version="1.0" encoding="iso-8859-1"?>
<!-- Generator: Adobe Illustrator 16.0.0, SVG Export Plug-In . SVG Version: 6.00 Build 0)  -->
<!DOCTYPE svg PUBLIC "-//W3C//DTD SVG 1.1//EN" "http://www.w3.org/Graphics/SVG/1.1/DTD/svg11.dtd">
<svg version="1.1" id="Capa_1" xmlns="http://www.w3.org/2000/svg" xmlns:xlink="http://www.w3.org/1999/xlink" x="0px" y="0px"
	 width="612px" height="612px" viewBox="0 0 612 612" style="enable-background:new 0 0 612 612;" xml:space="preserve" fill="white">
<g>
	<g id="Shape_16">
		<g>
			<path d="M0,67.171v373.171h612V67.171H0z M597.073,425.415H14.927V82.098h582.146V425.415z M313.464,455.269h-14.927v74.634
				h-89.561v14.927h194.049v-14.927h-89.561V455.269z M268.683,126.878H59.708v104.488h208.976V126.878z M253.756,216.439H74.634
				v-74.634h179.122V216.439z M268.683,276.146H59.708v104.487h208.976V276.146z M253.756,365.707H74.634v-74.634h179.122V365.707z
				 M499.452,114.892l-13.718-5.896l-40.438,94.353l-36.988-36.974l-10.554,10.553l52.572,52.587L499.452,114.892z M499.452,264.16
				l-13.718-5.896l-40.438,94.352l-36.988-36.974l-10.554,10.554l52.572,52.572L499.452,264.16z"/>
		</g>
	</g>
</g>
<g>
</g>
<g>
</g>
<g>
</g>
<g>
</g>
<g>
</g>
<g>
</g>
<g>
</g>
<g>
</g>
<g>
</g>
<g>
</g>
<g>
</g>
<g>
</g>
<g>
</g>
<g>
</g>
<g>
</g>
</svg>
