<svg id="icon" xmlns="http://www.w3.org/2000/svg" viewBox="0 0 512 512" fill="white"><title>wallet</title><path d="M341.13,29.44,141.74,130.6a5.74,5.74,0,1,0,5.19,10.23L346.31,39.67a10.69,10.69,0,0,1,14.36,4.69l47.67,94a5.74,5.74,0,0,0,10.23-5.19L370.9,39.17A22.17,22.17,0,0,0,341.13,29.44Z"/><path d="M359.21,92.11a5.68,5.68,0,0,0-4.37.33,24,24,0,0,1-32.21-10.52,5.73,5.73,0,0,0-7.71-2.52L214,130.6a5.74,5.74,0,0,0,5.19,10.23L315.41,92a35.51,35.51,0,0,0,39.29,12.84l17,33.46a5.74,5.74,0,0,0,10.23-5.19L362.55,95A5.74,5.74,0,0,0,359.21,92.11Z"/><path d="M64.47,485H448.84a21.25,21.25,0,0,0,21.23-21.23V357h3.79a16.89,16.89,0,0,0,16.87-16.87v-42.6a16.89,16.89,0,0,0-16.87-16.87H385.35a38.17,38.17,0,1,0,0,76.34H458.6v36.85H344.23a5.74,5.74,0,1,0,0,11.47H458.6v58.42a9.77,9.77,0,0,1-9.76,9.76H64.47a31.77,31.77,0,0,1-31.73-31.73V405.3h238.1a5.74,5.74,0,0,0,0-11.47H32.74v-198a31.77,31.77,0,0,1,31.73-31.73H448.84a9.77,9.77,0,0,1,9.76,9.76v88.28a5.74,5.74,0,1,0,11.47,0V173.9a21.26,21.26,0,0,0-21.23-21.23H64.47a43.25,43.25,0,0,0-43.2,43.2V441.75A43.25,43.25,0,0,0,64.47,485ZM358.65,318.81a26.73,26.73,0,0,1,26.7-26.7h88.51a5.41,5.41,0,0,1,5.4,5.4v42.6a5.4,5.4,0,0,1-5.4,5.4H385.35A26.73,26.73,0,0,1,358.65,318.81Z"/><path d="M389,314a5.54,5.54,0,0,0-2.07-.85,5.58,5.58,0,0,0-2.23,0,6.15,6.15,0,0,0-1.08.32,5.83,5.83,0,0,0-1.87,1.25,5.75,5.75,0,0,0-1.67,4.05,5.25,5.25,0,0,0,.11,1.12,5.33,5.33,0,0,0,.32,1.08,6.75,6.75,0,0,0,.53,1,7.48,7.48,0,0,0,.71.87,5.07,5.07,0,0,0,.88.71,6.28,6.28,0,0,0,1,.53,6.17,6.17,0,0,0,1.08.33,5.8,5.8,0,0,0,1.11.11,6,6,0,0,0,1.12-.11,5.78,5.78,0,0,0,2.07-.86,5.87,5.87,0,0,0,.87-.71,5.8,5.8,0,0,0,.7-.87,5.27,5.27,0,0,0,.53-1,5.37,5.37,0,0,0,.33-1.08,5.26,5.26,0,0,0,.12-1.12,5.8,5.8,0,0,0-1.68-4.05A7.56,7.56,0,0,0,389,314Z"/><path d="M306.47,393.83a5.74,5.74,0,0,0,0,11.47h2.08a5.74,5.74,0,1,0,0-11.47Z"/></svg>