<?xml version='1.0' encoding='iso-8859-1'?>
<svg version="1.1" xmlns="http://www.w3.org/2000/svg" viewBox="0 0 44.025 44.025" xmlns:xlink="http://www.w3.org/1999/xlink" enable-background="new 0 0 44.025 44.025" fill="white">
  <g>
    <g>
      <g>
        <path fill-rule="evenodd" d="m16.466,12.013c-2.507,0-4.539,2.015-4.539,4.5s2.032,4.5 4.539,4.5c2.506,0 4.538-2.015 4.538-4.5s-2.032-4.5-4.538-4.5zm0,7c-1.393,0-2.521-1.119-2.521-2.5s1.129-2.5 2.521-2.5c1.393,0 2.522,1.119 2.522,2.5s-1.13,2.5-2.522,2.5zm11.094,4c-2.506,0-4.538,2.015-4.538,4.5s2.032,4.5 4.538,4.5c2.507,0 4.539-2.015 4.539-4.5s-2.033-4.5-4.539-4.5zm0,7c-1.393,0-2.521-1.119-2.521-2.5s1.129-2.5 2.521-2.5c1.393,0 2.522,1.119 2.522,2.5s-1.13,2.5-2.522,2.5zm16.175-8.695l-5.585-5.538v-8.767c0-0.553-0.452-1-1.009-1h-8.844l-5.585-5.537c-0.387-0.384-1.014-0.384-1.401,0l-5.584,5.537h-8.843c-0.557,0-1.009,0.447-1.009,1v8.768l-5.585,5.537c-0.387,0.383-0.387,1.005-5.55112e-17,1.389l5.585,5.537v8.769c0,0.552 0.452,1 1.009,1h8.844l5.584,5.537c0.388,0.384 1.015,0.384 1.401,0l5.585-5.537h8.844c0.557,0 1.009-0.448 1.009-1v-8.769l5.585-5.537c0.386-0.384 0.386-1.006-0.001-1.389zm-7.602,6.494v8.201h-8.272l-5.689,5.641-5.688-5.641h-8.591v-8.518l-5.53-5.482 5.53-5.482v-8.518h8.591l5.688-5.641 5.689,5.641h8.272v8.201l5.849,5.799-5.849,5.799z"/>
      </g>
    </g>
    <g>
      <g>
        <path d="m32.432,11.406c-0.391-0.391-1.023-0.391-1.414,0l-19.799,19.799c-0.391,0.391-0.391,1.023-1.77636e-15,1.414 0.391,0.391 1.023,0.391 1.414,0l19.799-19.799c0.39-0.39 0.39-1.023 0-1.414z"/>
      </g>
    </g>
  </g>
</svg>
